<svg width="82" height="82" viewBox="0 0 82 82" fill="none" xmlns="http://www.w3.org/2000/svg">
<path d="M40.5 47.1539C40.5 47.43 40.7239 47.6539 41 47.6539C41.2761 47.6539 41.5 47.43 41.5 47.1539H40.5ZM41 44.0769V43.5769C40.8674 43.5769 40.7402 43.6296 40.6464 43.7234C40.5527 43.8171 40.5 43.9443 40.5 44.0769H41ZM29.7308 33.3077C29.7308 33.5838 29.9546 33.8077 30.2308 33.8077C30.5069 33.8077 30.7308 33.5838 30.7308 33.3077H29.7308ZM13.0843 68.9157C11.4725 67.3039 11.1638 64.7642 11.0815 61.9039C11.0415 60.5114 11.0537 59.0292 10.9635 57.6565C10.8727 56.2755 10.6759 54.9319 10.1924 53.7695L9.26911 54.1536C9.6895 55.1643 9.8773 56.3783 9.96562 57.7221C10.0545 59.0742 10.0403 60.4838 10.0819 61.9326C10.1631 64.7551 10.4505 67.6961 12.3772 69.6228L13.0843 68.9157ZM10.1924 53.7695C9.70975 52.609 8.89678 51.5082 7.98198 50.4516C7.07147 49.3999 6.01387 48.342 5.053 47.3127C4.07866 46.2689 3.1856 45.2365 2.53585 44.1803C1.8877 43.1267 1.5 42.0784 1.5 41H0.5C0.5 42.3254 0.977686 43.556 1.68411 44.7043C2.38892 45.85 3.33961 46.9426 4.322 47.995C5.31786 49.0619 6.32997 50.0712 7.22596 51.1061C8.11765 52.136 8.84794 53.141 9.26911 54.1536L10.1924 53.7695ZM1.5 41C1.5 39.9209 1.8834 38.8822 2.52479 37.8417C3.1682 36.798 4.05359 35.7803 5.02342 34.7458C5.9803 33.7251 7.03479 32.6729 7.94999 31.6128C8.8696 30.5475 9.6907 29.4285 10.192 28.2316L9.26958 27.8453C8.82853 28.8984 8.08714 29.9236 7.19304 30.9593C6.29454 32.0001 5.28412 33.0056 4.29389 34.0619C3.3166 35.1043 2.37267 36.1828 1.67353 37.317C0.97237 38.4544 0.5 39.6752 0.5 41H1.5ZM10.192 28.2316C10.6943 27.032 10.9013 25.6702 10.9958 24.2797C11.0899 22.8971 11.075 21.4217 11.1104 20.0368C11.183 17.1956 11.4733 14.6954 13.0843 13.0843L12.3772 12.3772C10.4498 14.3046 10.1824 17.2082 10.1107 20.0113C10.074 21.4485 10.0904 22.8553 9.99815 24.2119C9.90642 25.5605 9.7095 26.7949 9.26958 27.8453L10.192 28.2316ZM13.0843 13.0843C14.6961 11.4725 17.2358 11.1638 20.0961 11.0815C21.4886 11.0415 22.9708 11.0537 24.3435 10.9635C25.7245 10.8727 27.0681 10.6759 28.2305 10.1924L27.8464 9.26911C26.8357 9.6895 25.6217 9.8773 24.2779 9.96562C22.9258 10.0545 21.5162 10.0403 20.0674 10.0819C17.2449 10.1631 14.3039 10.4505 12.3772 12.3772L13.0843 13.0843ZM28.2305 10.1924C29.391 9.70975 30.4918 8.89678 31.5484 7.98198C32.6001 7.07147 33.658 6.01387 34.6873 5.053C35.7311 4.07866 36.7635 3.1856 37.8197 2.53585C38.8733 1.8877 39.9216 1.5 41 1.5V0.5C39.6746 0.5 38.444 0.977686 37.2957 1.68411C36.15 2.38892 35.0574 3.33961 34.005 4.322C32.9382 5.31786 31.9288 6.32997 30.8939 7.22596C29.864 8.11765 28.859 8.84794 27.8464 9.26911L28.2305 10.1924ZM41 1.5C42.0791 1.5 43.1178 1.8834 44.1583 2.52479C45.202 3.1682 46.2197 4.05359 47.2542 5.02342C48.2749 5.9803 49.3271 7.03479 50.3872 7.94999C51.4525 8.8696 52.5715 9.6907 53.7684 10.192L54.1547 9.26958C53.1016 8.82853 52.0764 8.08714 51.0407 7.19304C49.9999 6.29454 48.9944 5.28412 47.9381 4.29389C46.8957 3.3166 45.8172 2.37267 44.683 1.67353C43.5456 0.97237 42.3248 0.5 41 0.5V1.5ZM53.7684 10.192C54.968 10.6943 56.3298 10.9013 57.7203 10.9958C59.1029 11.0899 60.5783 11.075 61.9632 11.1104C64.8044 11.183 67.3046 11.4733 68.9157 13.0843L69.6228 12.3772C67.6954 10.4498 64.7918 10.1824 61.9887 10.1107C60.5515 10.074 59.1447 10.0904 57.7881 9.99815C56.4395 9.90642 55.2051 9.7095 54.1547 9.26958L53.7684 10.192ZM68.9157 13.0843C70.5275 14.6961 70.8362 17.2358 70.9185 20.0961C70.9585 21.4886 70.9463 22.9708 71.0365 24.3435C71.1273 25.7245 71.3241 27.0681 71.8076 28.2305L72.7309 27.8464C72.3105 26.8357 72.1227 25.6217 72.0344 24.2779C71.9455 22.9258 71.9597 21.5162 71.9181 20.0674C71.8369 17.2449 71.5495 14.3039 69.6228 12.3772L68.9157 13.0843ZM71.8076 28.2305C72.2903 29.391 73.1032 30.4918 74.018 31.5484C74.9285 32.6001 75.9861 33.658 76.947 34.6873C77.9213 35.7311 78.8144 36.7635 79.4642 37.8197C80.1123 38.8733 80.5 39.9216 80.5 41H81.5C81.5 39.6746 81.0223 38.444 80.3159 37.2957C79.6111 36.15 78.6604 35.0574 77.678 34.005C76.6821 32.9382 75.67 31.9288 74.774 30.8939C73.8824 29.864 73.1521 28.859 72.7309 27.8464L71.8076 28.2305ZM80.5 41C80.5 42.0791 80.1166 43.1178 79.4752 44.1583C78.8318 45.202 77.9464 46.2197 76.9766 47.2542C76.0197 48.2749 74.9652 49.3271 74.05 50.3872C73.1304 51.4525 72.3093 52.5715 71.808 53.7684L72.7304 54.1547C73.1715 53.1016 73.9129 52.0764 74.807 51.0407C75.7055 49.9999 76.7159 48.9944 77.7061 47.9381C78.6834 46.8957 79.6273 45.8172 80.3265 44.683C81.0276 43.5456 81.5 42.3248 81.5 41H80.5ZM71.808 53.7684C71.3057 54.968 71.0987 56.3298 71.0042 57.7203C70.9101 59.1029 70.925 60.5783 70.8896 61.9632C70.817 64.8044 70.5267 67.3046 68.9157 68.9157L69.6228 69.6228C71.5502 67.6954 71.8176 64.7918 71.8893 61.9887C71.926 60.5515 71.9096 59.1447 72.0019 57.7881C72.0936 56.4395 72.2905 55.2051 72.7304 54.1547L71.808 53.7684ZM68.9157 68.9157C67.3039 70.5275 64.7642 70.8362 61.9039 70.9185C60.5114 70.9585 59.0292 70.9463 57.6565 71.0365C56.2755 71.1273 54.9319 71.3241 53.7695 71.8076L54.1536 72.7309C55.1643 72.3105 56.3783 72.1227 57.7221 72.0344C59.0742 71.9455 60.4838 71.9597 61.9326 71.9181C64.7551 71.8369 67.6961 71.5495 69.6228 69.6228L68.9157 68.9157ZM53.7695 71.8076C52.609 72.2903 51.5082 73.1032 50.4516 74.018C49.3999 74.9285 48.342 75.9861 47.3127 76.947C46.2689 77.9213 45.2365 78.8144 44.1803 79.4642C43.1267 80.1123 42.0784 80.5 41 80.5V81.5C42.3254 81.5 43.556 81.0223 44.7043 80.3159C45.85 79.6111 46.9426 78.6604 47.995 77.678C49.0619 76.6821 50.0712 75.67 51.1061 74.774C52.136 73.8824 53.141 73.1521 54.1536 72.7309L53.7695 71.8076ZM41 80.5C39.9209 80.5 38.8822 80.1166 37.8417 79.4752C36.798 78.8318 35.7803 77.9464 34.7458 76.9766C33.7251 76.0197 32.6729 74.9652 31.6128 74.05C30.5475 73.1304 29.4285 72.3093 28.2316 71.808L27.8453 72.7304C28.8984 73.1715 29.9236 73.9129 30.9593 74.807C32.0001 75.7055 33.0056 76.7159 34.0619 77.7061C35.1043 78.6834 36.1828 79.6273 37.317 80.3265C38.4544 81.0276 39.6752 81.5 41 81.5V80.5ZM28.2316 71.808C27.032 71.3057 25.6702 71.0987 24.2797 71.0042C22.8971 70.9101 21.4217 70.925 20.0368 70.8896C17.1956 70.817 14.6954 70.5267 13.0843 68.9157L12.3772 69.6228C14.3046 71.5502 17.2082 71.8176 20.0113 71.8893C21.4485 71.926 22.8553 71.9096 24.2119 72.0019C25.5605 72.0936 26.7949 72.2905 27.8453 72.7304L28.2316 71.808ZM43.5769 61C43.5769 62.4232 42.4232 63.5769 41 63.5769V64.5769C42.9755 64.5769 44.5769 62.9755 44.5769 61H43.5769ZM41 63.5769C39.5768 63.5769 38.4231 62.4232 38.4231 61H37.4231C37.4231 62.9755 39.0245 64.5769 41 64.5769V63.5769ZM38.4231 61C38.4231 59.5768 39.5768 58.4231 41 58.4231V57.4231C39.0245 57.4231 37.4231 59.0245 37.4231 61H38.4231ZM41 58.4231C42.4232 58.4231 43.5769 59.5768 43.5769 61H44.5769C44.5769 59.0245 42.9755 57.4231 41 57.4231V58.4231ZM41.5 47.1539V44.0769H40.5V47.1539H41.5ZM41 44.5769C43.2288 44.5769 45.4076 43.916 47.2609 42.6777L46.7053 41.8462C45.0165 42.9746 43.0311 43.5769 41 43.5769V44.5769ZM47.2609 42.6777C49.1141 41.4394 50.5585 39.6794 51.4114 37.6202L50.4875 37.2376C49.7103 39.114 48.394 40.7179 46.7053 41.8462L47.2609 42.6777ZM51.4114 37.6202C52.2644 35.5611 52.4875 33.2952 52.0527 31.1092L51.0719 31.3043C51.4682 33.2963 51.2648 35.3611 50.4875 37.2376L51.4114 37.6202ZM52.0527 31.1092C51.6179 28.9232 50.5446 26.9152 48.9686 25.3391L48.2614 26.0463C49.6976 27.4824 50.6757 29.3122 51.0719 31.3043L52.0527 31.1092ZM48.9686 25.3391C47.3925 23.7631 45.3845 22.6898 43.1985 22.255L43.0034 23.2358C44.9955 23.632 46.8253 24.6101 48.2614 26.0463L48.9686 25.3391ZM43.1985 22.255C41.0125 21.8202 38.7466 22.0433 36.6875 22.8963L37.0701 23.8202C38.9466 23.0429 41.0114 22.8395 43.0034 23.2358L43.1985 22.255ZM36.6875 22.8963C34.6283 23.7492 32.8683 25.1936 31.63 27.0468L32.4614 27.6024C33.5898 25.9137 35.1937 24.5974 37.0701 23.8202L36.6875 22.8963ZM31.63 27.0468C30.3917 28.9001 29.7308 31.0789 29.7308 33.3077H30.7308C30.7308 31.2766 31.333 29.2912 32.4614 27.6024L31.63 27.0468Z" fill="#FF0096"/>
</svg>
