<svg width="51" height="82" viewBox="0 0 51 82" fill="none" xmlns="http://www.w3.org/2000/svg">
<path d="M25.6154 1V10.2308M25.6154 71.7692V81M47.1538 25.6154C47.1538 23.595 46.7559 21.5945 45.9828 19.7279C45.2096 17.8614 44.0764 16.1654 42.6478 14.7368C41.2192 13.3082 39.5232 12.175 37.6567 11.4019C35.7901 10.6287 33.7896 10.2308 31.7692 10.2308H17.9231C13.8428 10.2308 9.92969 11.8516 7.04451 14.7368C4.15934 17.622 2.53846 21.5351 2.53846 25.6154C2.53846 29.6956 4.15934 33.6088 7.04451 36.494C9.92969 39.3791 13.8428 41 17.9231 41H34.8462C38.9264 41 42.8395 42.6209 45.7247 45.5061C48.6099 48.3912 50.2308 52.3044 50.2308 56.3846C50.2308 60.4649 48.6099 64.378 45.7247 67.2632C42.8395 70.1484 38.9264 71.7692 34.8462 71.7692H16.3846C12.3044 71.7692 8.39122 70.1484 5.50605 67.2632C2.62087 64.378 1 60.4649 1 56.3846" stroke="#FF0096" stroke-linecap="round" stroke-linejoin="round"/>
</svg>
