<svg width="15" height="15" viewBox="0 0 15 15" fill="none" xmlns="http://www.w3.org/2000/svg">
<path d="M7.5 0C6.01664 0 4.56659 0.439867 3.33323 1.26398C2.09986 2.08809 1.13856 3.25943 0.570907 4.62987C0.00324963 6.00032 -0.145275 7.50832 0.144114 8.96318C0.433503 10.418 1.14781 11.7544 2.1967 12.8033C3.2456 13.8522 4.58197 14.5665 6.03682 14.8559C7.49168 15.1453 8.99968 14.9967 10.3701 14.4291C11.7406 13.8614 12.9119 12.9001 13.736 11.6668C14.5601 10.4334 15 8.98336 15 7.5C14.9962 5.51205 14.2048 3.60661 12.7991 2.20091C11.3934 0.795212 9.48795 0.003812 7.5 0ZM11.5385 8.07692H7.5C7.34699 8.07692 7.20025 8.01614 7.09206 7.90795C6.98386 7.79975 6.92308 7.65301 6.92308 7.5V3.46154C6.92308 3.30853 6.98386 3.16179 7.09206 3.05359C7.20025 2.9454 7.34699 2.88461 7.5 2.88461C7.65301 2.88461 7.79975 2.9454 7.90795 3.05359C8.01614 3.16179 8.07692 3.30853 8.07692 3.46154V6.92308H11.5385C11.6915 6.92308 11.8382 6.98386 11.9464 7.09205C12.0546 7.20025 12.1154 7.34699 12.1154 7.5C12.1154 7.65301 12.0546 7.79975 11.9464 7.90795C11.8382 8.01614 11.6915 8.07692 11.5385 8.07692Z" fill="white"/>
</svg>
