<svg width="15" height="15" viewBox="0 0 15 15" fill="none" xmlns="http://www.w3.org/2000/svg">
<path fill-rule="evenodd" clip-rule="evenodd" d="M14.7254 13.194C14.6258 13.2933 14.5057 13.4203 14.3783 13.5546C14.0606 13.8919 13.6635 14.3112 13.4147 14.4812C12.1055 15.3759 10.354 14.9478 9.11503 14.4316C7.48066 13.7506 5.70128 12.4953 4.10359 10.8973C2.5044 9.29923 1.24932 7.51919 0.568346 5.88567C0.052745 4.64641 -0.376229 2.89444 0.518544 1.58486C0.688458 1.33583 1.1087 0.939412 1.44554 0.620982C1.5803 0.494008 1.70627 0.374036 1.80588 0.274748C1.98271 0.0987828 2.22203 0 2.47149 0C2.72095 0 2.96026 0.0987828 3.1371 0.274748L5.54601 2.68309C5.72187 2.85992 5.82058 3.09919 5.82058 3.34859C5.82058 3.59799 5.72187 3.83725 5.54601 4.01409L4.88979 4.66902C4.67063 4.88659 4.52759 5.1691 4.48193 5.47453C4.43628 5.77995 4.49046 6.09195 4.63641 6.3641C5.539 8.06774 6.93243 9.46101 8.63613 10.3634C8.9082 10.5093 9.22013 10.5634 9.52544 10.5177C9.83076 10.4719 10.1131 10.3288 10.3305 10.1096L10.9851 9.45459C11.162 9.27863 11.4013 9.17984 11.6507 9.17984C11.9002 9.17984 12.1395 9.27863 12.3164 9.45459L14.7254 11.8633C14.9013 12.0401 15 12.2793 15 12.5287C15 12.7781 14.9013 13.0173 14.7254 13.194Z" fill="white"/>
</svg>
