<svg width="32" height="35" viewBox="0 0 32 35" fill="none" xmlns="http://www.w3.org/2000/svg">
<g clip-path="url(#clip0_2950_50)">
<path d="M5.93469 22.6051C6.14305 20.8633 6.85061 19.8881 8.18398 18.8884C10.0918 17.5344 12.4749 18.3003 12.4749 18.3003V13.7568C13.0543 13.7419 13.6339 13.7766 14.2069 13.8604V19.7075C14.2069 19.7075 11.8245 18.9416 9.91671 20.2962C8.58406 21.2952 7.87505 22.2711 7.66742 24.0129C7.66091 24.9587 7.83671 26.1951 8.64628 27.2641C8.44612 27.1605 8.2421 27.0424 8.03422 26.9098C6.25085 25.7008 5.92601 23.8869 5.93469 22.6051ZM24.047 5.35593C22.7346 3.90397 22.2383 2.43801 22.0588 1.4082H23.7098C23.7098 1.4082 23.3806 4.10839 25.7797 6.76378L25.813 6.79948C25.1664 6.38885 24.5734 5.90416 24.047 5.35593ZM32.0001 9.47237V15.2018C32.0001 15.2018 29.8934 15.1185 28.3343 14.718C26.1573 14.158 24.7581 13.299 24.7581 13.299C24.7581 13.299 23.7916 12.6864 23.7134 12.6437V24.475C23.7134 25.1338 23.5347 26.7789 22.99 28.1511C22.2788 29.9461 21.1813 31.1243 20.9794 31.3651C20.9794 31.3651 19.6446 32.9578 17.2897 34.0303C15.167 34.9978 13.3033 34.9733 12.7462 34.9978C12.7462 34.9978 9.52458 35.1266 6.62561 33.2245C5.99872 32.8053 5.41356 32.3304 4.87769 31.8062L4.89216 31.8167C7.79186 33.7188 11.0128 33.59 11.0128 33.59C11.5706 33.5655 13.4343 33.59 15.5562 32.6225C17.909 31.5499 19.246 29.9573 19.246 29.9573C19.4456 29.7164 20.5482 28.5382 21.2565 26.7425C21.7998 25.3711 21.98 23.7252 21.98 23.0664V11.2366C22.0581 11.28 23.024 11.8925 23.024 11.8925C23.024 11.8925 24.4239 12.7522 26.6008 13.3116C28.1607 13.712 30.2667 13.7953 30.2667 13.7953V9.30575C30.9873 9.46887 31.6015 9.51298 32.0001 9.47237Z" fill="#EE1D52"/>
<path d="M30.2672 9.30575V13.7939C30.2672 13.7939 28.1611 13.7106 26.6013 13.3102C24.4244 12.7501 23.0244 11.8911 23.0244 11.8911C23.0244 11.8911 22.0586 11.2786 21.9804 11.2352V23.0678C21.9804 23.7266 21.8017 25.3725 21.257 26.7439C20.5458 28.5396 19.4483 29.7178 19.2464 29.9587C19.2464 29.9587 17.9109 31.5513 15.5567 32.6239C13.4347 33.5914 11.571 33.5669 11.0132 33.5914C11.0132 33.5914 7.79232 33.7202 4.89262 31.8181L4.87815 31.8076C4.572 31.5083 4.28383 31.1923 4.01504 30.8611C3.08971 29.7221 2.52251 28.3751 2.37998 27.9908C2.37973 27.9891 2.37973 27.9875 2.37998 27.9859C2.15064 27.318 1.6688 25.7141 1.73464 24.1607C1.85112 21.4199 2.80611 19.7376 3.0586 19.3161C3.72731 18.1669 4.59706 17.1386 5.62912 16.2771C6.53986 15.5337 7.57214 14.9422 8.68364 14.5269C9.88521 14.0393 11.1719 13.7779 12.4747 13.7568V18.3003C12.4747 18.3003 10.0915 17.5372 8.18444 18.8884C6.85107 19.8881 6.14351 20.8633 5.93515 22.6051C5.92647 23.8869 6.25131 25.7008 8.03324 26.9105C8.24112 27.0436 8.44514 27.1616 8.6453 27.2648C8.9566 27.6733 9.3355 28.0293 9.76669 28.3184C11.5074 29.4308 12.9659 29.5085 14.831 28.786C16.0747 28.303 17.0109 27.2144 17.445 26.0082C17.7177 25.2549 17.7141 24.4967 17.7141 23.7126V1.4082H22.055C22.2344 2.43801 22.7307 3.90397 24.0431 5.35593C24.5695 5.90416 25.1625 6.38885 25.8091 6.79948C26.0001 6.999 26.9768 7.98541 28.2306 8.59098C28.8789 8.90399 29.5622 9.14383 30.2672 9.30575Z" fill="black"/>
<path d="M0.652344 26.5957V26.5992L0.760056 26.8939C0.747683 26.8596 0.707655 26.7553 0.652344 26.5957Z" fill="#69C9D0"/>
<path d="M8.68376 14.5267C7.57226 14.942 6.53997 15.5335 5.62923 16.2769C4.59684 17.1404 3.72731 18.1708 3.05944 19.3222C2.80695 19.7423 1.85196 21.426 1.73548 24.1668C1.66964 25.7202 2.15147 27.3241 2.38082 27.992C2.38057 27.9936 2.38057 27.9953 2.38082 27.9969C2.52551 28.3777 3.09055 29.7247 4.01588 30.8672C4.28467 31.1984 4.57284 31.5144 4.87899 31.8137C3.89809 31.1572 3.02328 30.3636 2.28315 29.4586C1.36578 28.3294 0.800018 26.9965 0.652429 26.603C0.652255 26.6002 0.652255 26.5974 0.652429 26.5946V26.5897C0.422363 25.9226 -0.0609197 24.318 0.00636379 22.7624C0.122844 20.0216 1.07783 18.3393 1.33033 17.9179C1.99801 16.7663 2.86756 15.7358 3.90012 14.8726C4.81067 14.1289 5.843 13.5374 6.95464 13.1224C7.64803 12.844 8.37036 12.6386 9.10916 12.5098C10.2226 12.3217 11.3597 12.3054 12.4784 12.4615V13.7566C11.1744 13.7773 9.88645 14.0387 8.68376 14.5267Z" fill="#69C9D0"/>
<path d="M22.0587 1.40855H17.7178V23.7137C17.7178 24.4977 17.7178 25.2538 17.4487 26.0092C17.0102 27.2147 16.0777 28.3033 14.8347 28.7864C12.9689 29.5117 11.5104 29.4312 9.7704 28.3187C9.33847 28.031 8.9586 27.6762 8.64612 27.2686C10.1285 28.0338 11.4554 28.0205 13.0991 27.382C14.3413 26.899 15.2753 25.8104 15.7123 24.6041C15.9858 23.8509 15.9822 23.0927 15.9822 22.3093V0H21.9762C21.9762 0 21.9089 0.55446 22.0587 1.40855ZM30.2673 8.06487V9.3061C29.5636 9.14392 28.8814 8.90409 28.2343 8.59132C26.9805 7.98576 26.0038 6.99935 25.8128 6.79983C26.0344 6.94064 26.2644 7.06874 26.5015 7.18347C28.0259 7.91995 29.5271 8.13978 30.2673 8.06487Z" fill="#69C9D0"/>
</g>
<defs>
<clipPath id="clip0_2950_50">
<rect width="32" height="35" fill="white"/>
</clipPath>
</defs>
</svg>
