<svg width="40" height="35" viewBox="0 0 40 35" fill="none" xmlns="http://www.w3.org/2000/svg">
<path d="M39.9664 3.02197C40.2781 1.00829 38.3635 -0.581116 36.5731 0.204989L0.912045 15.8621C-0.371929 16.4258 -0.27801 18.3706 1.05367 18.7947L8.40787 21.1367C9.81145 21.5837 11.3313 21.3526 12.557 20.5058L29.1374 9.05068C29.6374 8.70525 30.1824 9.41615 29.7552 9.85658L17.8203 22.1616C16.6625 23.3553 16.8923 25.3779 18.2849 26.2512L31.6474 34.6307C33.1461 35.5706 35.0742 34.6264 35.3545 32.8154L39.9664 3.02197Z" fill="white"/>
<path d="M39.9664 3.02197C40.2781 1.00829 38.3635 -0.581116 36.5731 0.204989L0.912045 15.8621C-0.371929 16.4258 -0.27801 18.3706 1.05367 18.7947L8.40787 21.1367C9.81145 21.5837 11.3313 21.3526 12.557 20.5058L29.1374 9.05068C29.6374 8.70525 30.1824 9.41615 29.7552 9.85658L17.8203 22.1616C16.6625 23.3553 16.8923 25.3779 18.2849 26.2512L31.6474 34.6307C33.1461 35.5706 35.0742 34.6264 35.3545 32.8154L39.9664 3.02197Z" fill="url(#paint0_linear_2950_46)"/>
<defs>
<linearGradient id="paint0_linear_2950_46" x1="20" y1="0" x2="20" y2="35" gradientUnits="userSpaceOnUse">
<stop stop-color="#37BBFE"/>
<stop offset="1" stop-color="#007DBB"/>
</linearGradient>
</defs>
</svg>
