<svg width="49" height="35" viewBox="0 0 49 35" fill="none" xmlns="http://www.w3.org/2000/svg">
<path d="M0.427886 6.89694C0.652814 3.43408 3.43691 0.720241 6.90281 0.548531C11.9217 0.299883 19.0951 0 24.5 0C29.9049 0 37.0783 0.299883 42.0972 0.548531C45.5631 0.720241 48.3472 3.43408 48.5721 6.89694C48.7876 10.2146 49 14.2969 49 17.5C49 20.7031 48.7876 24.7854 48.5721 28.1031C48.3472 31.5659 45.5631 34.2798 42.0972 34.4515C37.0783 34.7001 29.9049 35 24.5 35C19.0951 35 11.9217 34.7001 6.90282 34.4515C3.43691 34.2798 0.652814 31.5659 0.427886 28.1031C0.212387 24.7854 0 20.7031 0 17.5C0 14.2969 0.212387 10.2146 0.427886 6.89694Z" fill="#FC0D1B"/>
<path d="M19.25 10.5V24.5L33.25 17.5L19.25 10.5Z" fill="white"/>
</svg>
