<svg width="34" height="30" viewBox="0 0 34 30" fill="none" xmlns="http://www.w3.org/2000/svg">
<path d="M17.9329 28.6232L30.4338 15.6083C33.5051 12.3948 33.9526 7.14062 31.0512 3.78245C30.3235 2.93618 29.4378 2.25326 28.448 1.7754C27.4583 1.29755 26.3854 1.03481 25.2949 1.00323C24.2043 0.97165 23.119 1.1719 22.1053 1.59173C21.0916 2.01157 20.1708 2.64218 19.3991 3.44503L17.0532 5.9034L15.0315 3.78245C11.9448 0.58497 6.89813 0.119005 3.67258 3.13974C2.85972 3.89732 2.20377 4.81948 1.74478 5.84989C1.2858 6.88031 1.03344 7.99733 1.0031 9.13271C0.97277 10.2681 1.16511 11.398 1.56836 12.4534C1.97162 13.5088 2.57733 14.4675 3.34848 15.2709L16.1735 28.6232C16.4076 28.8646 16.7237 29 17.0532 29C17.3827 29 17.6988 28.8646 17.9329 28.6232V28.6232Z" stroke="white" stroke-linecap="round" stroke-linejoin="round"/>
</svg>
