<svg width="12" height="8" viewBox="0 0 12 8" fill="none" xmlns="http://www.w3.org/2000/svg">
<path d="M4.16471 8C4.02573 7.99819 3.89247 7.94674 3.7911 7.85573L0.120523 4.34307C0.0369059 4.24557 -0.00582585 4.1218 0.00063965 3.99582C0.00710515 3.86984 0.0623056 3.75066 0.155504 3.66147C0.248702 3.57228 0.373235 3.51946 0.504879 3.51327C0.636523 3.50708 0.765865 3.54798 0.867748 3.628L4.16471 6.78939L11.1323 0.115338C11.2341 0.0353183 11.3635 -0.00557521 11.4951 0.000612127C11.6268 0.00679946 11.7513 0.0596253 11.8445 0.148814C11.9377 0.238003 11.9929 0.357178 11.9994 0.483158C12.0058 0.609138 11.9631 0.732915 11.8795 0.830415L4.53832 7.85573C4.43695 7.94674 4.30369 7.99819 4.16471 8Z" fill="white"/>
</svg>
