<svg width="16" height="12" viewBox="0 0 16 12" fill="none" xmlns="http://www.w3.org/2000/svg">
<path fill-rule="evenodd" clip-rule="evenodd" d="M0 9.66667C0 9.48257 0.155727 9.33333 0.347826 9.33333H8.69565C8.88775 9.33333 9.04348 9.48257 9.04348 9.66667C9.04348 9.85076 8.88775 10 8.69565 10H0.347826C0.155727 10 0 9.85076 0 9.66667Z" fill="#FF0096"/>
<path fill-rule="evenodd" clip-rule="evenodd" d="M11.1304 9.66667C11.1304 9.48257 11.2862 9.33333 11.4783 9.33333H15.6522C15.8443 9.33333 16 9.48257 16 9.66667C16 9.85076 15.8443 10 15.6522 10H11.4783C11.2862 10 11.1304 9.85076 11.1304 9.66667Z" fill="#FF0096"/>
<path fill-rule="evenodd" clip-rule="evenodd" d="M0 2.33333C0 2.14924 0.155727 2 0.347826 2H3.13043C3.32253 2 3.47826 2.14924 3.47826 2.33333C3.47826 2.51743 3.32253 2.66667 3.13043 2.66667H0.347826C0.155727 2.66667 0 2.51743 0 2.33333Z" fill="#FF0096"/>
<path fill-rule="evenodd" clip-rule="evenodd" d="M5.56522 2.33333C5.56522 2.14924 5.72094 2 5.91304 2H15.6522C15.8443 2 16 2.14924 16 2.33333C16 2.51743 15.8443 2.66667 15.6522 2.66667H5.91304C5.72094 2.66667 5.56522 2.51743 5.56522 2.33333Z" fill="#FF0096"/>
<path fill-rule="evenodd" clip-rule="evenodd" d="M5.91304 0C6.10514 0 6.26087 0.149238 6.26087 0.333333V4.33333C6.26087 4.51743 6.10514 4.66667 5.91304 4.66667C5.72094 4.66667 5.56522 4.51743 5.56522 4.33333V0.333333C5.56522 0.149238 5.72094 0 5.91304 0Z" fill="#FF0096"/>
<path fill-rule="evenodd" clip-rule="evenodd" d="M11.4783 7.33333C11.6704 7.33333 11.8261 7.48257 11.8261 7.66667V11.6667C11.8261 11.8508 11.6704 12 11.4783 12C11.2862 12 11.1304 11.8508 11.1304 11.6667V7.66667C11.1304 7.48257 11.2862 7.33333 11.4783 7.33333Z" fill="#FF0096"/>
</svg>
