<svg width="36" height="34" viewBox="0 0 36 34" fill="none" xmlns="http://www.w3.org/2000/svg">
<path d="M18 13.3636V33M18 13.3636C20.0411 13.3636 21.6957 11.7356 21.6957 9.72727C21.6957 7.71896 20.0411 6.09091 18 6.09091M18 13.3636C15.9589 13.3636 14.3043 11.7356 14.3043 9.72727C14.3043 7.71896 15.9589 6.09091 18 6.09091M18 1V6.09091M31.3043 27.9091V33M31.3043 27.9091C33.3454 27.9091 35 26.281 35 24.2727C35 22.2644 33.3454 20.6364 31.3043 20.6364M31.3043 27.9091C29.2633 27.9091 27.6087 26.281 27.6087 24.2727C27.6087 22.2644 29.2633 20.6364 31.3043 20.6364M31.3043 1V20.6364M4.69565 22.0909V33M4.69565 22.0909C6.7367 22.0909 8.3913 20.4629 8.3913 18.4545C8.3913 16.4462 6.7367 14.8182 4.69565 14.8182M4.69565 22.0909C2.6546 22.0909 1 20.4629 1 18.4545C1 16.4462 2.6546 14.8182 4.69565 14.8182M4.69565 1V14.8182" stroke="#FF0096" stroke-width="1.27778" stroke-linecap="round" stroke-linejoin="round"/>
</svg>
