<svg xmlns="http://www.w3.org/2000/svg" width="38" height="38" viewBox="0 0 38 38" fill="none">
<circle opacity="0.2" cx="19" cy="19" r="18.5" fill="#101010" stroke="#FF0096"/>
<path d="M19 17.6667C18.8164 17.6667 18.6403 17.7369 18.5105 17.8619C18.3806 17.987 18.3077 18.1565 18.3077 18.3333V26.3333C18.3077 26.5101 18.3806 26.6797 18.5105 26.8047C18.6403 26.9298 18.8164 27 19 27C19.1836 27 19.3597 26.9298 19.4895 26.8047C19.6194 26.6797 19.6923 26.5101 19.6923 26.3333V18.3333C19.6923 18.1565 19.6194 17.987 19.4895 17.8619C19.3597 17.7369 19.1836 17.6667 19 17.6667Z" fill="#FF0096"/>
<path d="M25.2308 24.3333C25.0472 24.3333 24.8711 24.4036 24.7412 24.5286C24.6114 24.6536 24.5385 24.8232 24.5385 25V26.3333C24.5385 26.5101 24.6114 26.6797 24.7412 26.8047C24.8711 26.9298 25.0472 27 25.2308 27C25.4144 27 25.5905 26.9298 25.7203 26.8047C25.8501 26.6797 25.9231 26.5101 25.9231 26.3333V25C25.9231 24.8232 25.8501 24.6536 25.7203 24.5286C25.5905 24.4036 25.4144 24.3333 25.2308 24.3333Z" fill="#FF0096"/>
<path d="M27.3077 21.6667H25.9231V11.6667C25.9231 11.4899 25.8501 11.3203 25.7203 11.1953C25.5905 11.0702 25.4144 11 25.2308 11C25.0472 11 24.8711 11.0702 24.7412 11.1953C24.6114 11.3203 24.5385 11.4899 24.5385 11.6667V21.6667H23.1538C22.9702 21.6667 22.7941 21.7369 22.6643 21.8619C22.5345 21.987 22.4615 22.1565 22.4615 22.3333C22.4615 22.5101 22.5345 22.6797 22.6643 22.8047C22.7941 22.9298 22.9702 23 23.1538 23H27.3077C27.4913 23 27.6674 22.9298 27.7972 22.8047C27.9271 22.6797 28 22.5101 28 22.3333C28 22.1565 27.9271 21.987 27.7972 21.8619C27.6674 21.7369 27.4913 21.6667 27.3077 21.6667Z" fill="#FF0096"/>
<path d="M12.7692 21.6667C12.5856 21.6667 12.4095 21.7369 12.2797 21.8619C12.1499 21.987 12.0769 22.1565 12.0769 22.3333V26.3333C12.0769 26.5101 12.1499 26.6797 12.2797 26.8047C12.4095 26.9298 12.5856 27 12.7692 27C12.9528 27 13.1289 26.9298 13.2588 26.8047C13.3886 26.6797 13.4615 26.5101 13.4615 26.3333V22.3333C13.4615 22.1565 13.3886 21.987 13.2588 21.8619C13.1289 21.7369 12.9528 21.6667 12.7692 21.6667Z" fill="#FF0096"/>
<path d="M14.8462 19H13.4615V11.6667C13.4615 11.4899 13.3886 11.3203 13.2588 11.1953C13.1289 11.0702 12.9528 11 12.7692 11C12.5856 11 12.4095 11.0702 12.2797 11.1953C12.1499 11.3203 12.0769 11.4899 12.0769 11.6667V19H10.6923C10.5087 19 10.3326 19.0702 10.2028 19.1953C10.0729 19.3203 10 19.4899 10 19.6667C10 19.8435 10.0729 20.013 10.2028 20.1381C10.3326 20.2631 10.5087 20.3333 10.6923 20.3333H14.8462C15.0298 20.3333 15.2059 20.2631 15.3357 20.1381C15.4655 20.013 15.5385 19.8435 15.5385 19.6667C15.5385 19.4899 15.4655 19.3203 15.3357 19.1953C15.2059 19.0702 15.0298 19 14.8462 19Z" fill="#FF0096"/>
<path d="M21.0769 15H19.6923V11.6667C19.6923 11.4899 19.6194 11.3203 19.4895 11.1953C19.3597 11.0702 19.1836 11 19 11C18.8164 11 18.6403 11.0702 18.5105 11.1953C18.3806 11.3203 18.3077 11.4899 18.3077 11.6667V15H16.9231C16.7395 15 16.5634 15.0702 16.4335 15.1953C16.3037 15.3203 16.2308 15.4899 16.2308 15.6667C16.2308 15.8435 16.3037 16.013 16.4335 16.1381C16.5634 16.2631 16.7395 16.3333 16.9231 16.3333H21.0769C21.2605 16.3333 21.4366 16.2631 21.5665 16.1381C21.6963 16.013 21.7692 15.8435 21.7692 15.6667C21.7692 15.4899 21.6963 15.3203 21.5665 15.1953C21.4366 15.0702 21.2605 15 21.0769 15Z" fill="#FF0096"/>
</svg>