<svg width="38" height="38" viewBox="0 0 38 38" fill="none" xmlns="http://www.w3.org/2000/svg">
<circle opacity="0.2" cx="19" cy="19" r="18.5" stroke="white"/>
<path d="M19 17.875C18.8508 17.875 18.7077 17.9343 18.6023 18.0398C18.4968 18.1452 18.4375 18.2883 18.4375 18.4375V25.1875C18.4375 25.3367 18.4968 25.4798 18.6023 25.5852C18.7077 25.6907 18.8508 25.75 19 25.75C19.1492 25.75 19.2923 25.6907 19.3977 25.5852C19.5032 25.4798 19.5625 25.3367 19.5625 25.1875V18.4375C19.5625 18.2883 19.5032 18.1452 19.3977 18.0398C19.2923 17.9343 19.1492 17.875 19 17.875Z" fill="white"/>
<path d="M24.0625 23.5C23.9133 23.5 23.7702 23.5593 23.6648 23.6648C23.5593 23.7702 23.5 23.9133 23.5 24.0625V25.1875C23.5 25.3367 23.5593 25.4798 23.6648 25.5852C23.7702 25.6907 23.9133 25.75 24.0625 25.75C24.2117 25.75 24.3548 25.6907 24.4602 25.5852C24.5657 25.4798 24.625 25.3367 24.625 25.1875V24.0625C24.625 23.9133 24.5657 23.7702 24.4602 23.6648C24.3548 23.5593 24.2117 23.5 24.0625 23.5Z" fill="white"/>
<path d="M25.75 21.25H24.625V12.8125C24.625 12.6633 24.5657 12.5202 24.4602 12.4148C24.3548 12.3093 24.2117 12.25 24.0625 12.25C23.9133 12.25 23.7702 12.3093 23.6648 12.4148C23.5593 12.5202 23.5 12.6633 23.5 12.8125V21.25H22.375C22.2258 21.25 22.0827 21.3093 21.9773 21.4148C21.8718 21.5202 21.8125 21.6633 21.8125 21.8125C21.8125 21.9617 21.8718 22.1048 21.9773 22.2102C22.0827 22.3157 22.2258 22.375 22.375 22.375H25.75C25.8992 22.375 26.0423 22.3157 26.1477 22.2102C26.2532 22.1048 26.3125 21.9617 26.3125 21.8125C26.3125 21.6633 26.2532 21.5202 26.1477 21.4148C26.0423 21.3093 25.8992 21.25 25.75 21.25Z" fill="white"/>
<path d="M13.9375 21.25C13.7883 21.25 13.6452 21.3093 13.5398 21.4148C13.4343 21.5202 13.375 21.6633 13.375 21.8125V25.1875C13.375 25.3367 13.4343 25.4798 13.5398 25.5852C13.6452 25.6907 13.7883 25.75 13.9375 25.75C14.0867 25.75 14.2298 25.6907 14.3352 25.5852C14.4407 25.4798 14.5 25.3367 14.5 25.1875V21.8125C14.5 21.6633 14.4407 21.5202 14.3352 21.4148C14.2298 21.3093 14.0867 21.25 13.9375 21.25Z" fill="white"/>
<path d="M15.625 19H14.5V12.8125C14.5 12.6633 14.4407 12.5202 14.3352 12.4148C14.2298 12.3093 14.0867 12.25 13.9375 12.25C13.7883 12.25 13.6452 12.3093 13.5398 12.4148C13.4343 12.5202 13.375 12.6633 13.375 12.8125V19H12.25C12.1008 19 11.9577 19.0593 11.8523 19.1648C11.7468 19.2702 11.6875 19.4133 11.6875 19.5625C11.6875 19.7117 11.7468 19.8548 11.8523 19.9602C11.9577 20.0657 12.1008 20.125 12.25 20.125H15.625C15.7742 20.125 15.9173 20.0657 16.0227 19.9602C16.1282 19.8548 16.1875 19.7117 16.1875 19.5625C16.1875 19.4133 16.1282 19.2702 16.0227 19.1648C15.9173 19.0593 15.7742 19 15.625 19Z" fill="white"/>
<path d="M20.6875 15.625H19.5625V12.8125C19.5625 12.6633 19.5032 12.5202 19.3977 12.4148C19.2923 12.3093 19.1492 12.25 19 12.25C18.8508 12.25 18.7077 12.3093 18.6023 12.4148C18.4968 12.5202 18.4375 12.6633 18.4375 12.8125V15.625H17.3125C17.1633 15.625 17.0202 15.6843 16.9148 15.7898C16.8093 15.8952 16.75 16.0383 16.75 16.1875C16.75 16.3367 16.8093 16.4798 16.9148 16.5852C17.0202 16.6907 17.1633 16.75 17.3125 16.75H20.6875C20.8367 16.75 20.9798 16.6907 21.0852 16.5852C21.1907 16.4798 21.25 16.3367 21.25 16.1875C21.25 16.0383 21.1907 15.8952 21.0852 15.7898C20.9798 15.6843 20.8367 15.625 20.6875 15.625Z" fill="white"/>
</svg>
