<svg width="48" height="48" viewBox="0 0 48 48" fill="none" xmlns="http://www.w3.org/2000/svg">
<circle opacity="0.2" cx="24" cy="24" r="23.5" fill="#101010" stroke="white"/>
<path fill-rule="evenodd" clip-rule="evenodd" d="M23.6926 14.1273C23.8624 13.9576 24.1376 13.9576 24.3074 14.1273L28.8727 18.6926C29.0424 18.8624 29.0424 19.1376 28.8727 19.3074C28.7029 19.4772 28.4276 19.4772 28.2578 19.3074L24 15.0497L19.7422 19.3074C19.5724 19.4772 19.2971 19.4772 19.1273 19.3074C18.9576 19.1376 18.9576 18.8624 19.1273 18.6926L23.6926 14.1273Z" fill="white"/>
<path fill-rule="evenodd" clip-rule="evenodd" d="M24 14C24.2401 14 24.4348 14.1947 24.4348 14.4348V26.6087C24.4348 26.8488 24.2401 27.0435 24 27.0435C23.7599 27.0435 23.5652 26.8488 23.5652 26.6087V14.4348C23.5652 14.1947 23.7599 14 24 14Z" fill="white"/>
<path fill-rule="evenodd" clip-rule="evenodd" d="M14.4348 26.1739C14.6749 26.1739 14.8696 26.3686 14.8696 26.6087V32.6957C14.8696 32.811 14.9154 32.9216 14.9969 33.0031C15.0784 33.0846 15.189 33.1304 15.3043 33.1304H32.6957C32.811 33.1304 32.9216 33.0846 33.0031 33.0031C33.0846 32.9216 33.1304 32.811 33.1304 32.6957V26.6087C33.1304 26.3686 33.3251 26.1739 33.5652 26.1739C33.8053 26.1739 34 26.3686 34 26.6087V32.6957C34 33.0416 33.8626 33.3734 33.618 33.618C33.3734 33.8626 33.0416 34 32.6957 34H15.3043C14.9584 34 14.6266 33.8626 14.382 33.618C14.1374 33.3734 14 33.0416 14 32.6957V26.6087C14 26.3686 14.1947 26.1739 14.4348 26.1739Z" fill="white"/>
</svg>
