<svg xmlns="http://www.w3.org/2000/svg" width="70" height="70" viewBox="0 0 70 70" fill="none">
<circle cx="35" cy="35" r="35" fill="white"/>
<path d="M51 50.25C51 50.6642 50.6642 51 50.25 51C49.8358 51 49.5 50.6642 49.5 50.25C49.5 44.7414 46.4416 39.7773 41.5184 37.295C41.1486 37.1085 40.9999 36.6575 41.1864 36.2877C41.3728 35.9179 41.8239 35.7691 42.1937 35.9556C44.7996 37.2696 46.9993 39.2719 48.5549 41.7462C50.1546 44.2903 51 47.2309 51 50.25ZM27.8062 35.9557C25.2004 37.2696 23.0006 39.2719 21.445 41.7463C19.8454 44.2903 19 47.2309 19 50.25C19 50.6642 19.3358 51 19.75 51C20.1642 51 20.5 50.6642 20.5 50.25C20.5 44.7414 23.5584 39.7773 28.4816 37.295C28.8514 37.1085 29.0001 36.6575 28.8136 36.2877C28.6271 35.9178 28.176 35.7691 27.8062 35.9557ZM35 36.75C30.1063 36.75 26.125 32.7687 26.125 27.875C26.125 22.9813 30.1063 19 35 19C39.8937 19 43.875 22.9813 43.875 27.875C43.875 32.7687 39.8937 36.75 35 36.75ZM42.375 27.875C42.375 23.8084 39.0666 20.5 35 20.5C30.9334 20.5 27.625 23.8084 27.625 27.875C27.625 31.9416 30.9334 35.25 35 35.25C39.0666 35.25 42.375 31.9416 42.375 27.875Z" fill="#101010"/>
</svg>