<svg width="21" height="20" viewBox="0 0 21 20" fill="none" xmlns="http://www.w3.org/2000/svg">
<path d="M21 6.40025C21 5.97588 20.8298 5.5689 20.5269 5.26883C20.2239 4.96876 19.813 4.80018 19.3846 4.80018H16.1538V1.60006C16.1538 1.1757 15.9837 0.768717 15.6807 0.468647C15.3778 0.168577 14.9669 0 14.5385 0H1.61539C1.18696 0 0.776081 0.168577 0.473138 0.468647C0.170195 0.768717 3.16249e-06 1.1757 3.16249e-06 1.60006V14.4006C-0.000427439 14.552 0.043123 14.7005 0.125465 14.8281C0.207807 14.9558 0.325467 15.0573 0.464426 15.1206C0.600523 15.1865 0.752918 15.2121 0.90334 15.1943C1.05376 15.1766 1.19583 15.1163 1.3125 15.0206L4.84616 12.1905V15.2006C4.84616 15.6249 5.01635 16.0319 5.31929 16.332C5.62223 16.6321 6.03311 16.8006 6.46154 16.8006H15.9115L19.6875 19.8208C19.8042 19.9165 19.9462 19.9768 20.0967 19.9945C20.2471 20.0123 20.3995 19.9867 20.5356 19.9208C20.6745 19.8575 20.7922 19.756 20.8745 19.6283C20.9569 19.5006 21.0004 19.3522 21 19.2007V6.40025ZM16.699 15.3806C16.5577 15.2632 16.3787 15.1993 16.1942 15.2006H6.46154V12.0005H14.5385C14.9669 12.0005 15.3778 11.8319 15.6807 11.5318C15.9837 11.2317 16.1538 10.8248 16.1538 10.4004V6.40025H19.3846V17.5207L16.699 15.3806Z" fill="#FF0096"/>
</svg>
