<svg width="20" height="20" viewBox="0 0 20 20" fill="none" xmlns="http://www.w3.org/2000/svg">
<path d="M17.9723 11.8157C16.9827 12.7972 15.7222 13.46 14.3528 13.7189C12.9834 13.9777 11.568 13.8207 10.2886 13.2682L5.28789 19.0586C5.27828 19.0779 5.25904 19.0875 5.24943 19.0971C4.96441 19.3833 4.62571 19.6104 4.25274 19.7653C3.87978 19.9202 3.47991 20 3.07606 20C2.67221 20 2.27233 19.9202 1.89937 19.7653C1.52641 19.6104 1.1877 19.3833 0.902686 19.0971C0.616573 18.812 0.389551 18.4733 0.234645 18.1002C0.0797401 17.7272 0 17.3272 0 16.9233C0 16.5193 0.0797401 16.1194 0.234645 15.7463C0.389551 15.3733 0.616573 15.0345 0.902686 14.7494L0.941153 14.711L6.7304 9.70922C6.17277 8.43865 6.00959 7.02984 6.26201 5.6654C6.51443 4.30097 7.17081 3.04384 8.14606 2.05697C9.12131 1.07011 10.3705 0.399024 11.7316 0.13071C13.0927 -0.137603 14.503 0.00922902 15.7797 0.552173C15.8952 0.600691 15.9969 0.677014 16.0757 0.774348C16.1546 0.871683 16.2082 0.987009 16.2317 1.11006C16.2559 1.234 16.2493 1.362 16.2124 1.48278C16.1755 1.60356 16.1095 1.7134 16.0201 1.80261L12.2792 5.5443L12.635 7.36225L14.4526 7.71814L18.1935 3.97645C18.2827 3.88705 18.3925 3.82099 18.5132 3.78408C18.634 3.74718 18.762 3.74057 18.8859 3.76484C19.0089 3.78836 19.1242 3.84195 19.2215 3.92082C19.3188 3.9997 19.3951 4.10141 19.4436 4.21692C19.9865 5.4854 20.1365 6.88759 19.8742 8.24224C19.6119 9.59688 18.9494 10.8417 17.9723 11.8157Z" fill="#FF0096"/>
</svg>
