<svg width="38" height="38" viewBox="0 0 38 38" fill="none" xmlns="http://www.w3.org/2000/svg">
<circle cx="19" cy="19" r="18.5" stroke="#FF0096"/>
<path d="M25.9547 13.4656C25.566 13.0178 25.0917 12.6567 24.5615 12.4048C24.0312 12.1528 23.4561 12.0154 22.872 12.0011C22.2884 11.9879 21.7081 12.0959 21.1661 12.3185C20.6241 12.541 20.1314 12.8736 19.7176 13.2964L19.0294 13.9955L18.4917 13.4509C16.8213 11.7288 14.0971 11.5816 12.4267 13.1344C11.992 13.5348 11.6414 14.0219 11.3963 14.5661C11.1513 15.1103 11.0169 15.7001 11.0015 16.2994C10.9861 16.8987 11.0899 17.495 11.3066 18.0517C11.5233 18.6084 11.8483 19.1139 12.2618 19.5373L18.2193 25.653C18.3253 25.763 18.4514 25.8502 18.5905 25.9098C18.7295 25.9693 18.8787 26 19.0294 26C19.18 26 19.3292 25.9693 19.4683 25.9098C19.6073 25.8502 19.7335 25.763 19.8395 25.653L25.6464 19.6918C27.324 17.977 27.4602 15.1804 25.9547 13.4656Z" fill="#FF0096"/>
</svg>
