<svg width="74" height="82" viewBox="0 0 74 82" fill="none" xmlns="http://www.w3.org/2000/svg">
<path d="M55.375 50.1724V30.705L19 10.676M72.5873 21.0085L37.3374 41.0001M37.3374 41.0001L1.41235 21.0085M37.3374 41.0001L37 80.9834M73 59.4566V22.5434C72.9971 22.0102 72.8535 21.4871 72.5835 21.027C72.3136 20.5669 71.9269 20.186 71.4625 19.9227L38.4625 1.39122C38.0178 1.13493 37.5134 1 37 1C36.4866 1 35.9822 1.13493 35.5375 1.39122L2.5375 19.9227C2.07306 20.186 1.68638 20.5669 1.41645 21.027C1.14651 21.4871 1.00287 22.0102 1 22.5434V59.4566C1.00287 59.9898 1.14651 60.5129 1.41645 60.973C1.68638 61.4331 2.07306 61.814 2.5375 62.0773L35.5375 80.6088C35.9822 80.8651 36.4866 81 37 81C37.5134 81 38.0178 80.8651 38.4625 80.6088L71.4625 62.0773C71.9269 61.814 72.3136 61.4331 72.5835 60.973C72.8535 60.5129 72.9971 59.9898 73 59.4566Z" stroke="#FF0096" stroke-linecap="round" stroke-linejoin="round"/>
</svg>
