<svg width="22" height="20" viewBox="0 0 22 20" fill="none" xmlns="http://www.w3.org/2000/svg">
<path d="M21.9187 7.53704C21.8204 7.24535 21.6309 6.98849 21.3751 6.80013C21.1193 6.61176 20.8091 6.50069 20.4852 6.48148L14.6527 6.10185L12.4925 0.962963C12.3745 0.680003 12.1692 0.436948 11.9031 0.265263C11.637 0.093578 11.3224 0.00116934 11 0C10.6776 0.00116934 10.363 0.093578 10.0969 0.265263C9.83078 0.436948 9.62547 0.680003 9.50751 0.962963L7.30806 6.12963L1.51485 6.48148C1.19132 6.50194 0.881738 6.61348 0.626162 6.80166C0.370586 6.98984 0.180771 7.24602 0.0812721 7.53704C-0.0209037 7.83252 -0.0268735 8.15009 0.0641326 8.44881C0.155139 8.74752 0.338948 9.01368 0.59186 9.21296L5.04969 12.7685L3.72412 17.6852C3.63241 18.0178 3.64891 18.3687 3.77149 18.6924C3.89407 19.016 4.11705 19.2974 4.41145 19.5C4.69722 19.6934 5.03768 19.802 5.38927 19.8119C5.74086 19.8218 6.08758 19.7325 6.38507 19.5556L10.9902 16.8056H11.0098L15.9684 19.7593C16.2228 19.9151 16.5193 19.9987 16.8227 20C17.0704 19.9982 17.3143 19.9428 17.5357 19.8382C17.7572 19.7335 17.9502 19.5824 18.1001 19.3964C18.2499 19.2104 18.3525 18.9945 18.4 18.7653C18.4475 18.536 18.4386 18.2996 18.3741 18.0741L16.97 12.6944L21.4081 9.21296C21.6611 9.01368 21.8449 8.74752 21.9359 8.44881C22.0269 8.15009 22.0209 7.83252 21.9187 7.53704Z" fill="#FF0096"/>
</svg>
