<svg width="33" height="30" viewBox="0 0 33 30" fill="none" xmlns="http://www.w3.org/2000/svg">
<path d="M5.97567 6.21429C5.69952 6.21429 5.47567 6.43814 5.47567 6.71429C5.47567 6.99043 5.69952 7.21429 5.97567 7.21429V6.21429ZM32 6.71429L32.4802 6.8536C32.524 6.70258 32.4942 6.53974 32.3998 6.414C32.3053 6.28827 32.1573 6.21429 32 6.21429V6.71429ZM28.1703 19.9143L27.6901 19.775L27.6895 19.7771L28.1703 19.9143ZM25.9364 21.5714L25.9392 21.0714H25.9364V21.5714ZM12.0393 21.5714V21.0714L12.0364 21.0714L12.0393 21.5714ZM9.80533 19.9143L10.2862 19.7771L10.2855 19.7749L9.80533 19.9143ZM4.55405 1.82857L5.03422 1.68915L5.03421 1.68911L4.55405 1.82857ZM3.43706 1V1.5L3.43758 1.5L3.43706 1ZM1 0.500001C0.723858 0.500001 0.5 0.723858 0.5 1C0.5 1.27614 0.723858 1.5 1 1.5V0.500001ZM12.6853 27.2857C12.6853 27.9492 12.1371 28.5 11.4445 28.5V29.5C12.6748 29.5 13.6853 28.5158 13.6853 27.2857H12.6853ZM11.4445 28.5C10.752 28.5 10.2038 27.9492 10.2038 27.2857H9.20379C9.20379 28.5158 10.2143 29.5 11.4445 29.5V28.5ZM10.2038 27.2857C10.2038 26.6223 10.752 26.0714 11.4445 26.0714V25.0714C10.2143 25.0714 9.20379 26.0556 9.20379 27.2857H10.2038ZM11.4445 26.0714C12.1371 26.0714 12.6853 26.6223 12.6853 27.2857H13.6853C13.6853 26.0556 12.6748 25.0714 11.4445 25.0714V26.0714ZM27.7719 27.2857C27.7719 27.9492 27.2236 28.5 26.5311 28.5V29.5C27.7614 29.5 28.7719 28.5158 28.7719 27.2857H27.7719ZM26.5311 28.5C25.8386 28.5 25.2904 27.9492 25.2904 27.2857H24.2904C24.2904 28.5158 25.3008 29.5 26.5311 29.5V28.5ZM25.2904 27.2857C25.2904 26.6223 25.8386 26.0714 26.5311 26.0714V25.0714C25.3008 25.0714 24.2904 26.0556 24.2904 27.2857H25.2904ZM26.5311 26.0714C27.2236 26.0714 27.7719 26.6223 27.7719 27.2857H28.7719C28.7719 26.0556 27.7614 25.0714 26.5311 25.0714V26.0714ZM5.97567 7.21429H32V6.21429H5.97567V7.21429ZM31.5198 6.57497L27.6901 19.775L28.6505 20.0536L32.4802 6.8536L31.5198 6.57497ZM27.6895 19.7771C27.5834 20.1493 27.3556 20.4784 27.0396 20.7128L27.6354 21.5159C28.1266 21.1516 28.484 20.6374 28.6512 20.0514L27.6895 19.7771ZM27.0396 20.7128C26.7235 20.9473 26.3369 21.0737 25.9392 21.0714L25.9335 22.0714C26.5464 22.0749 27.1443 21.8802 27.6354 21.5159L27.0396 20.7128ZM25.9364 21.0714H12.0393V22.0714H25.9364V21.0714ZM12.0364 21.0714C11.6388 21.0737 11.2522 20.9473 10.9361 20.7128L10.3403 21.5159C10.8314 21.8802 11.4293 22.0749 12.0422 22.0714L12.0364 21.0714ZM10.9361 20.7128C10.6201 20.4784 10.3923 20.1493 10.2862 19.7771L9.32451 20.0514C9.49164 20.6374 9.8491 21.1516 10.3403 21.5159L10.9361 20.7128ZM10.2855 19.7749L5.03422 1.68915L4.07388 1.96799L9.32517 20.0537L10.2855 19.7749ZM5.03421 1.68911C4.93405 1.34426 4.7229 1.04243 4.4344 0.828419L3.83863 1.63157C3.95324 1.71659 4.03526 1.83503 4.07389 1.96803L5.03421 1.68911ZM4.4344 0.828419C4.14602 0.614502 3.7957 0.499628 3.43654 0.500001L3.43758 1.5C3.5831 1.49985 3.72389 1.54646 3.83863 1.63157L4.4344 0.828419ZM3.43706 0.500001H1V1.5H3.43706V0.500001Z" fill="white"/>
</svg>
