<svg width="30" height="24" viewBox="0 0 30 24" fill="none" xmlns="http://www.w3.org/2000/svg">
<path d="M14 6V19C14 19.2652 13.8946 19.5196 13.7071 19.7071C13.5196 19.8946 13.2652 20 13 20H11V22H13C13.2652 22 13.5196 22.1054 13.7071 22.2929C13.8946 22.4804 14 22.7348 14 23C14 23.2652 13.8946 23.5196 13.7071 23.7071C13.5196 23.8946 13.2652 24 13 24H7C6.73478 24 6.48043 23.8946 6.29289 23.7071C6.10536 23.5196 6 23.2652 6 23C6 22.7348 6.10536 22.4804 6.29289 22.2929C6.48043 22.1054 6.73478 22 7 22H9V20H3C2.20536 19.9967 1.44421 19.6796 0.882315 19.1177C0.320418 18.5558 0.00329046 17.7946 0 17V8C0.00329046 7.20536 0.320418 6.44421 0.882315 5.88231C1.44421 5.32042 2.20536 5.00329 3 5H13C13.2652 5 13.5196 5.10536 13.7071 5.29289C13.8946 5.48043 14 5.73478 14 6ZM30 2V22C30 22.5304 29.7893 23.0391 29.4142 23.4142C29.0391 23.7893 28.5304 24 28 24H18C17.4696 24 16.9609 23.7893 16.5858 23.4142C16.2107 23.0391 16 22.5304 16 22V2C16 1.46957 16.2107 0.960859 16.5858 0.585786C16.9609 0.210714 17.4696 0 18 0H28C28.5304 0 29.0391 0.210714 29.4142 0.585786C29.7893 0.960859 30 1.46957 30 2ZM24.5 18.5C24.5 18.2033 24.412 17.9133 24.2472 17.6666C24.0824 17.42 23.8481 17.2277 23.574 17.1142C23.2999 17.0007 22.9983 16.9709 22.7074 17.0288C22.4164 17.0867 22.1491 17.2296 21.9393 17.4393C21.7296 17.6491 21.5867 17.9164 21.5288 18.2074C21.4709 18.4983 21.5007 18.7999 21.6142 19.074C21.7277 19.3481 21.92 19.5824 22.1666 19.7472C22.4133 19.912 22.7033 20 23 20C23.3978 20 23.7794 19.842 24.0607 19.5607C24.342 19.2794 24.5 18.8978 24.5 18.5ZM27 9C27 8.73478 26.8946 8.48043 26.7071 8.29289C26.5196 8.10536 26.2652 8 26 8H20C19.7348 8 19.4804 8.10536 19.2929 8.29289C19.1054 8.48043 19 8.73478 19 9C19 9.26522 19.1054 9.51957 19.2929 9.70711C19.4804 9.89464 19.7348 10 20 10H26C26.2652 10 26.5196 9.89464 26.7071 9.70711C26.8946 9.51957 27 9.26522 27 9ZM27 5C27 4.73478 26.8946 4.48043 26.7071 4.29289C26.5196 4.10536 26.2652 4 26 4H20C19.7348 4 19.4804 4.10536 19.2929 4.29289C19.1054 4.48043 19 4.73478 19 5C19 5.26522 19.1054 5.51957 19.2929 5.70711C19.4804 5.89464 19.7348 6 20 6H26C26.2652 6 26.5196 5.89464 26.7071 5.70711C26.8946 5.51957 27 5.26522 27 5Z" fill="#FF0096"/>
</svg>
