<svg width="46" height="34" viewBox="0 0 46 34" fill="none" xmlns="http://www.w3.org/2000/svg">
<path d="M27.7126 11.4379H33.9961M12.0038 11.4379H18.2873M15.1456 8.24469V14.6311M41.6934 9.58168L44.9137 26.4257C45.1205 27.5978 44.9534 28.8064 44.437 29.8752C43.9205 30.944 43.0817 31.8173 42.0427 32.3675C41.0037 32.9178 39.8189 33.1164 38.6611 32.9343C37.5033 32.7522 36.433 32.1989 35.6062 31.3552L27.1235 21.7756M31.6399 1L14.3602 1.05987C11.9602 1.06451 9.63819 1.92662 7.80033 3.49539C5.96248 5.06417 4.7258 7.23973 4.30661 9.64155L1.08631 26.4257C0.879538 27.5978 1.04655 28.8064 1.563 29.8752C2.07945 30.944 2.91833 31.8173 3.95732 32.3675C4.99631 32.9178 6.18108 33.1164 7.3389 32.9343C8.49671 32.7522 9.56701 32.1989 10.3938 31.3552L18.8765 21.8156L31.6399 21.7557C34.3479 21.7557 36.945 20.6623 38.8599 18.7161C40.7748 16.7699 41.8506 14.1302 41.8506 11.3778C41.8506 8.62547 40.7748 5.98582 38.8599 4.0396C36.945 2.09338 34.3479 1 31.6399 1Z" stroke="#FF0096" stroke-width="1.27778" stroke-linecap="round" stroke-linejoin="round"/>
</svg>
