<svg width="44" height="35" viewBox="0 0 44 35" fill="none" xmlns="http://www.w3.org/2000/svg">
<path d="M19.0003 27.9998H4.00005C3.20439 27.9998 2.44131 27.6838 1.87869 27.1212C1.31608 26.5586 1 25.7955 1 24.9999V11.5C1 10.7043 1.31608 9.94128 1.87869 9.37867C2.44131 8.81607 3.20439 8.5 4.00005 8.5H19.0003" stroke="#FF0096" stroke-width="1.27778" stroke-linecap="round" stroke-linejoin="round"/>
<path d="M19.0002 34H10" stroke="#FF0096" stroke-width="1.27778" stroke-linecap="round" stroke-linejoin="round"/>
<path d="M37.0003 8.0127H31.0002" stroke="#FF0096" stroke-width="1.27778" stroke-linecap="round" stroke-linejoin="round"/>
<path d="M37.0001 13H31" stroke="#FF0096" stroke-width="1.27778" stroke-linecap="round" stroke-linejoin="round"/>
<path d="M41.5001 1H26.4999C25.6714 1 24.9998 1.67157 24.9998 2.49999V32.4997C24.9998 33.3281 25.6714 33.9997 26.4999 33.9997H41.5001C42.3286 33.9997 43.0001 33.3281 43.0001 32.4997V2.49999C43.0001 1.67157 42.3286 1 41.5001 1Z" stroke="#FF0096" stroke-width="1.27778" stroke-linecap="round" stroke-linejoin="round"/>
<path d="M14.4995 28V33.9999" stroke="#FF0096" stroke-width="1.27778" stroke-linecap="round" stroke-linejoin="round"/>
<path d="M34.8621 27.25C34.8621 27.7255 34.4766 28.1111 34.001 28.1111C33.5254 28.1111 33.1399 27.7255 33.1399 27.25C33.1399 26.7744 33.5254 26.3889 34.001 26.3889C34.4766 26.3889 34.8621 26.7744 34.8621 27.25Z" stroke="#FF0096" stroke-width="1.27778"/>
</svg>
