<svg width="35" height="35" viewBox="0 0 35 35" fill="none" xmlns="http://www.w3.org/2000/svg">
<rect width="35" height="35" rx="6" fill="url(#paint0_radial_2950_32)"/>
<rect width="35" height="35" rx="6" fill="url(#paint1_radial_2950_32)"/>
<rect width="35" height="35" rx="6" fill="url(#paint2_radial_2950_32)"/>
<path d="M26.25 10.625C26.25 11.6605 25.4105 12.5 24.375 12.5C23.3395 12.5 22.5 11.6605 22.5 10.625C22.5 9.58947 23.3395 8.75 24.375 8.75C25.4105 8.75 26.25 9.58947 26.25 10.625Z" fill="white"/>
<path fill-rule="evenodd" clip-rule="evenodd" d="M17.5 23.75C20.9518 23.75 23.75 20.9518 23.75 17.5C23.75 14.0482 20.9518 11.25 17.5 11.25C14.0482 11.25 11.25 14.0482 11.25 17.5C11.25 20.9518 14.0482 23.75 17.5 23.75ZM17.5 21.25C19.5711 21.25 21.25 19.5711 21.25 17.5C21.25 15.4289 19.5711 13.75 17.5 13.75C15.4289 13.75 13.75 15.4289 13.75 17.5C13.75 19.5711 15.4289 21.25 17.5 21.25Z" fill="white"/>
<path fill-rule="evenodd" clip-rule="evenodd" d="M5 17C5 12.7996 5 10.6994 5.81745 9.09507C6.5365 7.68386 7.68386 6.5365 9.09507 5.81745C10.6994 5 12.7996 5 17 5H18C22.2004 5 24.3006 5 25.9049 5.81745C27.3161 6.5365 28.4635 7.68386 29.1825 9.09507C30 10.6994 30 12.7996 30 17V18C30 22.2004 30 24.3006 29.1825 25.9049C28.4635 27.3161 27.3161 28.4635 25.9049 29.1825C24.3006 30 22.2004 30 18 30H17C12.7996 30 10.6994 30 9.09507 29.1825C7.68386 28.4635 6.5365 27.3161 5.81745 25.9049C5 24.3006 5 22.2004 5 18V17ZM17 7.5H18C20.1414 7.5 21.5972 7.50194 22.7224 7.59388C23.8184 7.68343 24.379 7.84574 24.77 8.04497C25.7108 8.52433 26.4757 9.28924 26.955 10.23C27.1543 10.621 27.3166 11.1816 27.4061 12.2776C27.4981 13.4028 27.5 14.8586 27.5 17V18C27.5 20.1414 27.4981 21.5972 27.4061 22.7224C27.3166 23.8184 27.1543 24.379 26.955 24.77C26.4757 25.7108 25.7108 26.4757 24.77 26.955C24.379 27.1543 23.8184 27.3166 22.7224 27.4061C21.5972 27.4981 20.1414 27.5 18 27.5H17C14.8586 27.5 13.4028 27.4981 12.2776 27.4061C11.1816 27.3166 10.621 27.1543 10.23 26.955C9.28924 26.4757 8.52433 25.7108 8.04497 24.77C7.84574 24.379 7.68343 23.8184 7.59388 22.7224C7.50194 21.5972 7.5 20.1414 7.5 18V17C7.5 14.8586 7.50194 13.4028 7.59388 12.2776C7.68343 11.1816 7.84574 10.621 8.04497 10.23C8.52433 9.28924 9.28924 8.52433 10.23 8.04497C10.621 7.84574 11.1816 7.68343 12.2776 7.59388C13.4028 7.50194 14.8586 7.5 17 7.5Z" fill="white"/>
<defs>
<radialGradient id="paint0_radial_2950_32" cx="0" cy="0" r="1" gradientUnits="userSpaceOnUse" gradientTransform="translate(12.5 26.25) rotate(-55.3758) scale(31.8995)">
<stop stop-color="#B13589"/>
<stop offset="0.79309" stop-color="#C62F94"/>
<stop offset="1" stop-color="#8A3AC8"/>
</radialGradient>
<radialGradient id="paint1_radial_2950_32" cx="0" cy="0" r="1" gradientUnits="userSpaceOnUse" gradientTransform="translate(11.25 36.25) rotate(-65.1363) scale(28.2428)">
<stop stop-color="#E0E8B7"/>
<stop offset="0.444662" stop-color="#FB8A2E"/>
<stop offset="0.71474" stop-color="#E2425C"/>
<stop offset="1" stop-color="#E2425C" stop-opacity="0"/>
</radialGradient>
<radialGradient id="paint2_radial_2950_32" cx="0" cy="0" r="1" gradientUnits="userSpaceOnUse" gradientTransform="translate(-1.875 1.25) rotate(-8.1301) scale(48.6136 10.3979)">
<stop offset="0.156701" stop-color="#406ADC"/>
<stop offset="0.467799" stop-color="#6A45BE"/>
<stop offset="1" stop-color="#6A45BE" stop-opacity="0"/>
</radialGradient>
</defs>
</svg>
