<svg width="12" height="15" viewBox="0 0 12 15" fill="none" xmlns="http://www.w3.org/2000/svg">
<path d="M6 0C4.40926 0.00177243 2.88418 0.623219 1.75935 1.728C0.634525 2.83279 0.00180459 4.33069 0 5.89309C0 10.9357 5.45455 14.7461 5.68636 14.9068C5.77927 14.9676 5.88839 15 6 15C6.11161 15 6.22073 14.9676 6.31364 14.9068C6.54545 14.7461 12 10.9357 12 5.89309C11.9982 4.33069 11.3655 2.83279 10.2406 1.728C9.11582 0.623219 7.59075 0.00177243 6 0ZM6 3.75015C6.43152 3.75015 6.85335 3.87583 7.21215 4.1113C7.57095 4.34677 7.8506 4.68145 8.01574 5.07302C8.18087 5.46459 8.22408 5.89546 8.1399 6.31115C8.05571 6.72684 7.84791 7.10868 7.54278 7.40837C7.23765 7.70807 6.84888 7.91216 6.42565 7.99485C6.00242 8.07754 5.56373 8.0351 5.16505 7.8729C4.76638 7.71071 4.42563 7.43604 4.18588 7.08364C3.94614 6.73123 3.81818 6.31692 3.81818 5.89309C3.81818 5.32474 4.04805 4.77968 4.45722 4.3778C4.86639 3.97592 5.42135 3.75015 6 3.75015Z" fill="white"/>
</svg>
