<svg width="30" height="30" viewBox="0 0 30 30" fill="none" xmlns="http://www.w3.org/2000/svg">
<path d="M9.00373 15.0964C10.2587 17.6881 12.3544 19.7784 14.9494 21.0268C15.1408 21.1174 15.3525 21.1566 15.5637 21.1406C15.7748 21.1245 15.9782 21.0538 16.1537 20.9353L19.965 18.3893C20.1334 18.2751 20.328 18.2054 20.5306 18.1868C20.7332 18.1681 20.9372 18.2011 21.1237 18.2826L28.2584 21.3469C28.5023 21.4484 28.706 21.6272 28.8382 21.8559C28.9704 22.0845 29.0238 22.3503 28.9902 22.6123C28.764 24.3773 27.9025 25.9994 26.5669 27.1751C25.2312 28.3508 23.5129 28.9996 21.7335 29C16.2346 29 10.961 26.8156 7.07269 22.9273C3.18441 19.039 1 13.7654 1 8.26653C1.0004 6.48711 1.64916 4.7688 2.82489 3.43313C4.00062 2.09746 5.62274 1.23595 7.38774 1.00982C7.64971 0.976166 7.91548 1.02956 8.14412 1.16179C8.37276 1.29402 8.5516 1.49774 8.65309 1.74159L11.7174 8.89158C11.7971 9.07506 11.8304 9.27531 11.8144 9.4747C11.7985 9.6741 11.7337 9.8665 11.6259 10.035L9.07995 13.9073C8.96661 14.0824 8.90008 14.2837 8.88674 14.4919C8.87339 14.7001 8.91367 14.9082 9.00373 15.0964V15.0964Z" stroke="white" stroke-linecap="round" stroke-linejoin="round"/>
</svg>
