<svg width="24" height="24" viewBox="0 0 24 24" fill="none" xmlns="http://www.w3.org/2000/svg">
<path d="M23.6619 22.0882L18.7894 17.2038C20.3066 15.3827 21.2191 13.0555 21.2191 10.5137C21.2191 4.71496 16.4641 0 10.6151 0C4.76606 0 0 4.72046 0 10.5192C0 16.318 4.75507 21.033 10.6041 21.033C13.0888 21.033 15.3756 20.1802 17.1897 18.7553L22.0897 23.6616C22.5405 24.1128 23.2112 24.1128 23.6619 23.6616C24.1127 23.2105 24.1127 22.5393 23.6619 22.0882ZM2.25385 10.5192C2.25385 5.96384 6.00293 2.2612 10.6041 2.2612C15.2052 2.2612 18.9543 5.96384 18.9543 10.5192C18.9543 15.0747 15.2052 18.7773 10.6041 18.7773C6.00293 18.7773 2.25385 15.0692 2.25385 10.5192Z" fill="white"/>
</svg>
