<svg width="24" height="24" viewBox="0 0 24 24" fill="none" xmlns="http://www.w3.org/2000/svg">
<path d="M23.5845 14.63L21.3192 12.905C21.3479 12.639 21.3726 12.328 21.3726 11.999C21.3726 11.67 21.3489 11.359 21.3192 11.093L23.5866 9.36703C24.0077 9.04303 24.1227 8.46802 23.8546 7.98905L21.4989 4.02C21.2473 3.57202 20.6958 3.342 20.1362 3.543L17.4631 4.58798C16.9507 4.22798 16.4136 3.924 15.858 3.681L15.4514 0.920016C15.3846 0.396 14.9163 0 14.3628 0H9.63903C9.08551 0 8.61829 0.396 8.55254 0.912L8.14487 3.68302C7.60675 3.91903 7.07792 4.21903 6.54288 4.59L3.86262 3.54202C3.36041 3.35302 2.75967 3.56498 2.51013 4.011L0.151329 7.98502C-0.126949 8.44303 -0.0119508 9.03802 0.418344 9.37003L2.68371 11.095C2.64775 11.432 2.63032 11.725 2.63032 12C2.63032 12.2751 2.6478 12.568 2.68371 12.906L0.416274 14.632C-0.00477844 14.957 -0.118766 15.532 0.149259 16.01L2.50502 19.979C2.75663 20.426 3.30294 20.658 3.86773 20.456L6.54081 19.411C7.05221 19.77 7.58927 20.074 8.14487 20.318L8.55153 23.078C8.61825 23.604 9.08551 24 9.64004 24H14.3638C14.9174 24 15.3856 23.604 15.4514 23.088L15.859 20.318C16.3971 20.081 16.925 19.782 17.461 19.41L20.1413 20.458C20.2695 20.5069 20.4061 20.532 20.5438 20.532C20.9423 20.532 21.3089 20.32 21.4937 19.99L23.8597 16C24.1227 15.532 24.0076 14.957 23.5845 14.63ZM12.0009 16C9.73555 16 7.89326 14.206 7.89326 12C7.89326 9.79402 9.73555 8.00002 12.0009 8.00002C14.2663 8.00002 16.1086 9.79402 16.1086 12C16.1086 14.206 14.2663 16 12.0009 16Z" fill="#FF0096"/>
</svg>
