<svg width="28" height="28" viewBox="0 0 28 28" fill="none" xmlns="http://www.w3.org/2000/svg">
<path d="M28 27.3438C28 27.7062 27.7062 28 27.3438 28C26.9813 28 26.6875 27.7062 26.6875 27.3438C26.6875 22.5238 24.0114 18.1801 19.7036 16.0081C19.38 15.8449 19.2499 15.4503 19.4131 15.1267C19.5762 14.8031 19.9709 14.6729 20.2945 14.8362C22.5746 15.9859 24.4994 17.7379 25.8606 19.9029C27.2602 22.129 28 24.702 28 27.3438ZM7.70547 14.8362C5.42533 15.9859 3.50055 17.7379 2.13937 19.903C0.739758 22.129 0 24.702 0 27.3438C0 27.7062 0.293836 28 0.65625 28C1.01866 28 1.3125 27.7062 1.3125 27.3438C1.3125 22.5238 3.98858 18.1801 8.29637 16.0081C8.62001 15.8449 8.75011 15.4503 8.58692 15.1267C8.42368 14.8031 8.029 14.673 7.70547 14.8362ZM14 15.5312C9.71802 15.5312 6.23438 12.0476 6.23438 7.76562C6.23438 3.48365 9.71802 0 14 0C18.282 0 21.7656 3.48365 21.7656 7.76562C21.7656 12.0476 18.282 15.5312 14 15.5312ZM20.4531 7.76562C20.4531 4.20738 17.5582 1.3125 14 1.3125C10.4418 1.3125 7.54688 4.20733 7.54688 7.76562C7.54688 11.3239 10.4418 14.2188 14 14.2188C17.5582 14.2188 20.4531 11.3239 20.4531 7.76562Z" fill="white"/>
</svg>
